<?xml version="1.0" standalone="no"?>
<!DOCTYPE svg PUBLIC "-//W3C//DTD SVG 20010904//EN"
 "http://www.w3.org/TR/2001/REC-SVG-20010904/DTD/svg10.dtd">
<svg version="1.0" xmlns="http://www.w3.org/2000/svg"
 width="900.000000pt" height="900.000000pt" viewBox="0 0 900.000000 900.000000"
 preserveAspectRatio="xMidYMid meet">
<metadata>
Created by potrace 1.10, written by Peter Selinger 2001-2011
</metadata>
<g transform="translate(0.000000,900.000000) scale(0.100000,-0.100000)"
fill="#000000" stroke="none">
<path d="M4675 7711 c-11 -5 -71 -10 -134 -10 -112 -1 -265 -19 -392 -47 -37
-8 -78 -14 -91 -14 -14 0 -44 -6 -69 -14 -24 -7 -73 -21 -109 -31 -36 -9 -83
-24 -105 -32 -22 -8 -58 -22 -80 -30 -103 -38 -264 -114 -345 -162 -19 -11
-45 -25 -57 -30 -81 -36 -323 -221 -439 -336 -83 -83 -254 -291 -254 -309 0
-3 -13 -24 -29 -48 -16 -24 -39 -61 -50 -83 -12 -22 -26 -47 -31 -55 -33 -53
-115 -264 -129 -330 -4 -19 -13 -51 -19 -70 -60 -193 -77 -665 -26 -747 8 -12
14 -29 14 -36 0 -22 114 -140 151 -158 90 -43 113 -49 179 -49 94 0 201 49
277 127 29 29 53 59 53 65 0 6 6 19 13 27 24 29 40 94 47 191 18 252 75 448
184 635 71 121 220 293 316 367 137 105 219 157 325 207 39 18 83 39 98 47 16
8 35 14 42 14 7 0 26 6 42 14 51 25 200 63 303 76 36 5 99 13 140 19 112 16
404 13 528 -4 262 -37 381 -72 587 -170 270 -129 495 -334 683 -620 50 -76
172 -313 172 -334 0 -6 6 -25 14 -43 38 -89 67 -183 91 -298 9 -41 21 -95 27
-120 33 -147 34 -713 2 -895 -30 -174 -74 -335 -120 -443 -8 -18 -14 -37 -14
-43 0 -27 -133 -279 -180 -339 -15 -19 -29 -42 -32 -50 -12 -33 -192 -230
-275 -301 -87 -75 -232 -180 -276 -199 -12 -6 -40 -21 -62 -33 -150 -85 -373
-156 -580 -186 -38 -6 -89 -13 -112 -16 -24 -4 -43 -12 -43 -18 -4 -190 2
-763 8 -769 16 -16 324 17 437 47 28 8 77 21 110 30 104 27 169 47 200 60 17
7 50 20 75 30 109 42 286 129 388 190 80 48 269 187 348 257 63 55 227 219
284 283 42 48 172 219 197 260 12 19 105 175 123 205 21 36 101 208 122 265 9
22 23 58 31 80 9 22 23 65 32 95 10 30 24 70 31 88 8 18 14 40 14 50 0 9 6 37
14 62 8 25 22 83 31 130 9 47 20 105 26 130 23 106 49 404 49 563 0 267 -53
691 -106 842 -8 23 -14 52 -14 65 -1 14 -7 36 -15 50 -8 14 -14 35 -15 47 0
12 -6 37 -14 55 -8 18 -21 51 -29 73 -69 185 -141 337 -231 490 -64 107 -213
312 -280 384 -59 63 -209 212 -242 241 -103 88 -266 208 -329 240 -11 6 -33
19 -50 29 -61 39 -297 151 -318 151 -7 0 -22 7 -33 15 -10 8 -25 15 -32 15 -8
0 -28 6 -45 13 -53 23 -221 69 -327 91 -154 31 -219 39 -380 47 -91 4 -190 11
-220 13 -30 3 -64 2 -75 -3z"/>
<path d="M4305 5935 c-74 -16 -125 -34 -146 -51 -8 -8 -22 -14 -30 -14 -18 0
-117 -92 -151 -140 -39 -55 -81 -150 -90 -205 -22 -126 -25 -318 -26 -1676
l-2 -1445 -30 -84 c-42 -118 -101 -184 -209 -239 -39 -20 -61 -23 -165 -23
-133 -1 -164 7 -241 66 -64 49 -94 87 -127 156 -30 63 -40 92 -58 175 -5 22
-9 398 -10 835 0 902 4 855 -81 940 -60 60 -113 74 -279 73 -174 -2 -246 -31
-308 -126 l-27 -42 0 -930 c0 -863 1 -933 18 -973 9 -23 17 -53 17 -67 0 -13
7 -41 16 -62 9 -21 22 -51 29 -68 74 -182 180 -334 298 -431 64 -52 105 -84
110 -84 4 0 23 -12 44 -26 45 -30 156 -84 198 -95 39 -11 109 -28 165 -41 73
-17 268 -21 350 -8 219 34 257 46 405 117 84 41 93 46 170 102 153 112 292
292 351 454 46 128 48 136 73 287 7 41 11 287 11 658 0 325 3 592 8 592 4 0
117 2 252 4 330 4 411 20 620 120 176 84 286 171 394 313 72 95 145 250 167
351 5 24 11 48 15 53 16 26 37 238 37 364 0 178 -30 380 -69 473 -8 18 -14 37
-14 42 0 17 -71 164 -95 195 -12 17 -24 35 -26 42 -4 11 -32 47 -99 125 -31
36 -162 143 -215 175 -21 13 -90 47 -140 68 -121 53 -245 64 -685 63 -254 0
-383 -4 -425 -13z m909 -724 c84 -42 162 -118 200 -196 41 -85 69 -208 61
-269 -8 -67 -33 -158 -45 -170 -5 -5 -10 -16 -10 -22 0 -19 -58 -104 -99 -144
-116 -115 -267 -154 -571 -148 l-165 3 -3 461 c-2 455 -2 461 19 485 34 39 75
44 318 39 l227 -5 68 -34z"/>
</g>
</svg>
