<?xml version="1.0" encoding="UTF-8"?>
<svg xmlns="http://www.w3.org/2000/svg" xmlns:xlink="http://www.w3.org/1999/xlink" width="px" height="px" viewBox="0 0 400 400" version="1.1">
<g id="surface1">
<path style=" stroke:none;fill-rule:nonzero;fill:rgb(49.803922%,22.745098%,52.549022%);fill-opacity:1;" d="M 346.183594 287.5 C 348.539062 283.269531 350 278.507812 350 274.230469 L 350 125.765625 C 350 121.488281 348.539062 116.726562 346.183594 112.5 L 200 200 Z M 346.183594 287.5 "/>
<path style=" stroke:none;fill-rule:nonzero;fill:rgb(40.000001%,14.509805%,47.450981%);fill-opacity:1;" d="M 212.992188 371.792969 L 337.015625 297.558594 C 340.585938 295.421875 343.832031 291.726562 346.1875 287.5 L 200.003906 200 L 53.820312 287.5 C 56.175781 291.726562 59.421875 295.421875 62.996094 297.558594 L 187.015625 371.792969 C 194.15625 376.070312 205.851562 376.070312 212.992188 371.792969 Z M 212.992188 371.792969 "/>
<path style=" stroke:none;fill-rule:nonzero;fill:rgb(60.392159%,31.764707%,58.823532%);fill-opacity:1;" d="M 346.183594 112.5 C 343.828125 108.269531 340.582031 104.578125 337.011719 102.441406 L 212.988281 28.207031 C 205.847656 23.929688 194.152344 23.929688 187.011719 28.207031 L 62.992188 102.441406 C 55.84375 106.714844 50 117.214844 50 125.765625 L 50 274.234375 C 50 278.507812 51.460938 283.273438 53.816406 287.5 Z M 346.183594 112.5 "/>
<path style=" stroke:none;fill-rule:nonzero;fill:rgb(100%,100%,100%);fill-opacity:1;" d="M 200.480469 300 C 145.078125 300 100 255.140625 100 200 C 100 144.859375 145.078125 100 200.480469 100 C 235.574219 100 268.34375 118.445312 286.488281 148.273438 L 243.457031 174.082031 C 234.363281 159.199219 218 150 200.480469 150 C 172.777344 150 150.242188 172.429688 150.242188 200 C 150.242188 227.570312 172.777344 250 200.480469 250 C 217.953125 250 234.277344 240.851562 243.382812 226.039062 L 286.507812 251.699219 C 268.363281 281.542969 235.582031 300 200.480469 300 Z M 200.480469 300 "/>
<path style=" stroke:none;fill-rule:evenodd;fill:rgb(100%,100%,100%);fill-opacity:1;" d="M 312.5 162.5 L 312.5 174.96875 L 287.5 174.96875 L 287.5 162.5 L 275 162.5 L 275 174.96875 L 262.5 174.96875 L 262.5 187.5 L 275 187.5 L 275 212.433594 L 262.5 212.433594 L 262.5 225 L 275 225 L 275 237.5 L 287.5 237.5 L 287.5 225 L 312.5 225 L 312.5 237.5 L 325 237.5 L 325 225 L 337.5 225 L 337.5 212.5 L 325 212.5 L 325 187.5 L 337.5 187.5 L 337.5 174.96875 L 325 174.96875 L 325 162.5 Z M 312.5 212.5 L 312.5 187.5 L 287.5 187.5 L 287.5 212.433594 Z M 312.5 212.5 "/>
</g>
</svg>
