<?xml version="1.0" encoding="UTF-8"?>
<svg xmlns="http://www.w3.org/2000/svg" xmlns:xlink="http://www.w3.org/1999/xlink" width="px" height="px" viewBox="0 0 400 400" version="1.1">
<g id="surface1">
<path style=" stroke:none;fill-rule:nonzero;fill:rgb(0%,82.352942%,72.156864%);fill-opacity:1;" d="M 110.210938 108.898438 L 84.355469 83.046875 L 84.464844 269.921875 L 84.773438 278.65625 C 84.902344 282.765625 85.664062 287.402344 86.9375 292.210938 L 291.789062 364.445312 L 342.992188 341.757812 L 343.011719 341.695312 L 110.210938 108.898438 "/>
<path style=" stroke:none;fill-rule:nonzero;fill:rgb(33.333334%,86.666667%,79.215688%);fill-opacity:1;" d="M 86.9375 292.210938 L 86.949219 292.222656 C 86.9375 292.136719 86.894531 292.042969 86.894531 291.957031 C 86.894531 292.042969 86.90625 292.125 86.9375 292.210938 Z M 342.992188 341.757812 L 291.789062 364.445312 L 86.949219 292.222656 C 90.863281 307.234375 99.523438 324.109375 108.847656 333.335938 L 175.695312 399.804688 L 324.335938 400 L 343.011719 341.695312 Z M 342.992188 341.757812 "/>
<path style=" stroke:none;fill-rule:nonzero;fill:rgb(0%,50.588238%,77.64706%);fill-opacity:1;" d="M 4.742188 203.304688 C -1.878906 210.371094 1.410156 224.945312 12.066406 235.683594 L 58.03125 282.03125 L 86.9375 292.210938 C 85.664062 287.402344 84.902344 282.765625 84.773438 278.65625 L 84.464844 269.921875 L 84.355469 83.046875 Z M 4.742188 203.304688 "/>
<path style=" stroke:none;fill-rule:nonzero;fill:rgb(0%,47.450981%,70.19608%);fill-opacity:1;" d="M 293.46875 85.445312 C 288.664062 84.21875 284.054688 83.460938 279.875 83.328125 L 270.644531 83.007812 L 84.355469 83.035156 L 343.039062 341.695312 L 343.058594 341.695312 L 365.777344 290.4375 L 293.46875 85.445312 "/>
<path style=" stroke:none;fill-rule:nonzero;fill:rgb(0%,64.313728%,89.411765%);fill-opacity:1;" d="M 293.234375 85.398438 C 293.335938 85.417969 293.414062 85.445312 293.476562 85.457031 L 293.46875 85.445312 C 293.414062 85.417969 293.335938 85.417969 293.234375 85.398438 Z M 334.558594 107.394531 C 325.171875 97.929688 308.519531 89.324219 293.476562 85.457031 L 365.777344 290.4375 L 343.058594 341.695312 L 343.039062 341.695312 L 398.554688 323.960938 L 398.675781 171.75 Z M 334.558594 107.394531 "/>
<path style=" stroke:none;fill-rule:nonzero;fill:rgb(0%,82.352942%,72.156864%);fill-opacity:1;" d="M 283.339844 56.714844 L 237.007812 10.722656 C 226.289062 0.105469 211.710938 -3.195312 204.664062 3.402344 L 84.355469 83.035156 L 270.644531 83.007812 L 279.875 83.328125 C 284.054688 83.460938 288.664062 84.21875 293.46875 85.445312 Z M 283.339844 56.714844 "/>
</g>
</svg>
