<?xml version="1.0" encoding="UTF-8"?>
<svg xmlns="http://www.w3.org/2000/svg" xmlns:xlink="http://www.w3.org/1999/xlink" width="px" height="px" viewBox="0 0 400 400" version="1.1">
<defs>
<filter id="alpha" filterUnits="objectBoundingBox" x="0%" y="0%" width="100%" height="100%">
  <feColorMatrix type="matrix" in="SourceGraphic" values="0 0 0 0 1 0 0 0 0 1 0 0 0 0 1 0 0 0 1 0"/>
</filter>
<mask id="mask0">
  <g filter="url(#alpha)">
<rect x="0" y="0" width="400" height="400" style="fill:rgb(0%,0%,0%);fill-opacity:0.101961;stroke:none;"/>
  </g>
</mask>
<clipPath id="clip1">
  <rect x="0" y="0" width="400" height="400"/>
</clipPath>
<g id="surface5" clip-path="url(#clip1)">
<path style=" stroke:none;fill-rule:nonzero;fill:rgb(100%,100%,100%);fill-opacity:1;" d="M 61.375 56.25 C 5.976562 105.613281 -17.535156 181.589844 0.289062 253.617188 C 18.117188 325.644531 74.355469 381.882812 146.382812 399.710938 C 218.410156 417.535156 294.386719 394.023438 343.75 338.625 Z M 61.375 56.25 "/>
</g>
</defs>
<g id="surface1">
<path style=" stroke:none;fill-rule:nonzero;fill:rgb(36.078432%,17.647059%,56.862748%);fill-opacity:1;" d="M 400 200 C 400 89.542969 310.457031 0 200 0 C 89.542969 0 0 89.542969 0 200 C 0 310.457031 89.542969 400 200 400 C 310.457031 400 400 310.457031 400 200 Z M 400 200 "/>
<use xlink:href="#surface5" mask="url(#mask0)"/>
<path style=" stroke:none;fill-rule:nonzero;fill:rgb(100%,100%,100%);fill-opacity:1;" d="M 46.25 257.8125 C 43.890625 257.851562 41.625 256.898438 40 255.1875 C 38.332031 253.539062 37.40625 251.28125 37.4375 248.9375 C 37.421875 246.59375 38.34375 244.34375 40 242.6875 C 41.609375 240.949219 43.878906 239.972656 46.25 240 C 48.613281 239.996094 50.878906 240.96875 52.5 242.6875 C 54.183594 244.328125 55.132812 246.585938 55.125 248.9375 C 55.148438 251.292969 54.199219 253.554688 52.5 255.1875 C 50.863281 256.878906 48.605469 257.828125 46.25 257.8125 Z M 46.25 257.8125 "/>
<path style=" stroke:none;fill-rule:nonzero;fill:rgb(100%,100%,100%);fill-opacity:1;" d="M 170.4375 256.25 L 154.0625 256.25 L 95.5 165.375 C 94.042969 163.132812 92.828125 160.746094 91.875 158.25 L 91.375 158.25 C 91.933594 163.4375 92.140625 168.660156 92 173.875 L 92 256.25 L 78.6875 256.25 L 78.6875 142.3125 L 96 142.3125 L 153 231.5625 C 155.375 235.269531 156.917969 237.8125 157.625 239.1875 L 157.9375 239.1875 C 157.277344 233.628906 157.007812 228.03125 157.125 222.4375 L 157.125 142.3125 L 170.4375 142.3125 Z M 170.4375 256.25 "/>
<path style=" stroke:none;fill-rule:nonzero;fill:rgb(100%,100%,100%);fill-opacity:1;" d="M 260.5625 256.25 L 200 256.25 L 200 142.3125 L 257.75 142.3125 L 257.75 154.375 L 213.625 154.375 L 213.625 192.25 L 254.75 192.25 L 254.75 204.25 L 213.625 204.25 L 213.625 243.75 L 260.625 243.75 Z M 260.5625 256.25 "/>
<path style=" stroke:none;fill-rule:nonzero;fill:rgb(100%,100%,100%);fill-opacity:1;" d="M 350 154.375 L 316.875 154.375 L 316.875 256.25 L 303.5625 256.25 L 303.5625 154.375 L 270.8125 154.375 L 270.8125 142.3125 L 350 142.3125 Z M 350 154.375 "/>
</g>
</svg>
