<?xml version="1.0" encoding="UTF-8"?>
<svg xmlns="http://www.w3.org/2000/svg" xmlns:xlink="http://www.w3.org/1999/xlink" width="px" height="px" viewBox="0 0 400 400" version="1.1">
<g id="surface1">
<path style=" stroke:none;fill-rule:nonzero;fill:rgb(100%,76.078433%,29.019609%);fill-opacity:1;" d="M 72.5 307.5 L 74.625 304.539062 L 174.875 114.363281 L 175.085938 112.351562 L 130.898438 29.351562 C 129.242188 26.238281 125.777344 24.535156 122.300781 25.121094 C 118.820312 25.707031 116.109375 28.453125 115.5625 31.9375 Z M 72.5 307.5 "/>
<path style=" stroke:none;fill-rule:nonzero;fill:rgb(100%,65.490198%,7.058824%);fill-opacity:1;" d="M 73.75 305.25 L 75.351562 302.125 L 174.5625 113.925781 L 130.488281 30.601562 C 128.996094 27.625 125.71875 25.988281 122.441406 26.582031 C 119.164062 27.179688 116.675781 29.863281 116.324219 33.175781 Z M 73.75 305.25 "/>
<path style=" stroke:none;fill-rule:nonzero;fill:rgb(95.686275%,74.117649%,38.431373%);fill-opacity:1;" d="M 207.300781 175.125 L 240.199219 141.375 L 207.289062 78.613281 C 205.8125 75.859375 202.941406 74.144531 199.820312 74.144531 C 196.695312 74.144531 193.824219 75.859375 192.351562 78.613281 L 174.761719 112.136719 L 174.761719 115 Z M 207.300781 175.125 "/>
<path style=" stroke:none;fill-rule:nonzero;fill:rgb(100%,64.705884%,5.490196%);fill-opacity:1;" d="M 206.710938 173.75 L 238.699219 141 L 206.710938 80 C 205.644531 77.304688 203.089844 75.484375 200.191406 75.359375 C 197.292969 75.230469 194.589844 76.820312 193.289062 79.414062 L 175.613281 113.523438 L 175.085938 115.261719 Z M 206.710938 173.75 "/>
<path style=" stroke:none;fill-rule:nonzero;fill:rgb(96.470588%,50.980395%,4.705882%);fill-opacity:1;" d="M 72.523438 307.511719 L 73.488281 306.539062 L 76.976562 305.125 L 205.226562 177.351562 L 206.851562 172.925781 L 174.863281 111.949219 Z M 72.523438 307.511719 "/>
<path style=" stroke:none;fill-rule:nonzero;fill:rgb(99.215686%,87.843138%,40.784314%);fill-opacity:1;" d="M 211.398438 371.949219 L 327.5 307.210938 L 294.324219 103.074219 C 293.839844 100.140625 291.757812 97.722656 288.925781 96.8125 C 286.09375 95.902344 282.992188 96.648438 280.886719 98.75 L 72.5 307.5 L 187.914062 371.9375 C 195.207031 376.007812 204.09375 376.007812 211.386719 371.9375 "/>
<path style=" stroke:none;fill-rule:nonzero;fill:rgb(98.823529%,79.215688%,24.705882%);fill-opacity:1;" d="M 326.4375 306.675781 L 293.539062 104.074219 C 293.417969 101.261719 291.617188 98.792969 288.96875 97.828125 C 286.320312 96.863281 283.355469 97.585938 281.449219 99.664062 L 73.75 307.113281 L 187.886719 370.863281 C 195.125 374.898438 203.9375 374.898438 211.175781 370.863281 Z M 326.4375 306.675781 "/>
<path style=" stroke:none;fill-rule:nonzero;fill:rgb(93.333334%,67.058825%,21.568628%);fill-opacity:1;" d="M 211.398438 370 C 204.105469 374.070312 195.21875 374.070312 187.925781 370 L 73.449219 306.523438 L 72.5 307.5 L 187.914062 371.9375 C 195.207031 376.007812 204.09375 376.007812 211.386719 371.9375 L 327.5 307.210938 L 327.210938 305.460938 Z M 211.398438 370 "/>
</g>
</svg>
