<?xml version="1.0" encoding="UTF-8"?>
<svg xmlns="http://www.w3.org/2000/svg" xmlns:xlink="http://www.w3.org/1999/xlink" width="px" height="px" viewBox="0 0 400 400" version="1.1">
<g id="surface1">
<path style=" stroke:none;fill-rule:evenodd;fill:rgb(91.764706%,15.686275%,27.058825%);fill-opacity:1;" d="M 231.085938 25 C 228.683594 25.035156 226.304688 25.457031 224.039062 26.25 C 244.226562 39.523438 220.414062 58.75 231.539062 75 C 229.96875 63.824219 235.28125 52.800781 245 47.0625 C 248.5625 44.101562 250.851562 43.039062 250.085938 38.136719 C 248.851562 30.113281 238.148438 25 231.085938 25 Z M 259.835938 30.175781 C 257.050781 44.210938 253.585938 44.726562 243.300781 53.761719 C 235.039062 60.273438 232.316406 71.59375 236.710938 81.148438 C 194.210938 64.648438 139.738281 54.675781 99.800781 83.226562 C 85.4375 93.488281 76.675781 108.226562 58.960938 114.238281 C 47.511719 118.164062 36.261719 117 29.085938 128.351562 C 23.667969 135.121094 23.964844 144.824219 29.789062 151.25 C 31.925781 153.4375 36.039062 154.835938 37.738281 157.0625 C 38.726562 158.3125 38.699219 159.5625 39.636719 161.226562 C 41.292969 165.097656 43.6875 168.613281 46.6875 171.574219 C 48.523438 173.085938 54.835938 174.5625 55.914062 176.175781 C 57.261719 178.1875 53.761719 186.175781 56.699219 187.425781 C 58.675781 188.335938 64.460938 178.125 65.023438 177.226562 C 63.875 185.261719 62.363281 199.523438 71.398438 187.648438 C 75.6875 182.011719 75.949219 180.148438 83.164062 178.898438 C 87.777344 178.097656 92.441406 177.613281 97.125 177.449219 C 152.664062 175.507812 200.015625 217.367188 204.898438 272.726562 C 203.550781 266.476562 195.386719 256.476562 187.789062 258.851562 C 184.550781 259.851562 183.351562 265.4375 181.226562 268.675781 C 178.539062 272.78125 175.226562 276.441406 171.414062 279.523438 C 172.058594 273.464844 171.753906 267.339844 170.511719 261.375 C 168.238281 270.726562 163.675781 286.238281 152.1875 283.726562 C 144.378906 282.53125 137.933594 276.992188 135.585938 269.449219 C 134.101562 259.949219 144.136719 248.8125 128 248.023438 C 95.625 246.4375 103.113281 294.050781 122.226562 306.460938 C 117.832031 306.949219 113.546875 308.144531 109.539062 310 C 134.1875 324.316406 164.320312 325.511719 190.03125 313.199219 C 215.738281 300.886719 233.691406 276.65625 237.988281 248.476562 C 240.769531 261.1875 240.707031 274.355469 237.800781 287.039062 C 236.246094 293.777344 233.921875 300.316406 230.875 306.523438 C 226.742188 314.910156 221.253906 322.554688 214.625 329.148438 C 210.699219 333.039062 203.5 336.949219 201.023438 340.914062 C 216.175781 338.902344 230.980469 334.832031 245.023438 328.8125 C 230.484375 348.730469 211.121094 364.621094 188.75 375 C 237.476562 371.554688 281.179688 343.78125 305 301.136719 C 301.261719 322.132812 292.964844 342.050781 280.6875 359.488281 C 314.066406 337.140625 336.609375 301.878906 342.875 262.199219 C 345.953125 276.566406 346.835938 291.320312 345.488281 305.949219 C 372.960938 267.777344 381.644531 219.203125 369.101562 173.875 C 364.363281 156.476562 357.257812 139.8125 347.988281 124.351562 C 344.40625 118.324219 340.488281 112.507812 336.25 106.925781 C 334.585938 104.761719 325.699219 96.851562 325.699219 94.425781 C 325.625 94.667969 325.5625 94.667969 325.511719 94.425781 C 325.511719 135.023438 281.761719 161.085938 245.125 150.210938 C 273.792969 147.988281 297.246094 126.492188 301.949219 98.125 C 306.125 68.285156 288.417969 39.710938 259.835938 30.175781 Z M 259.835938 30.175781 "/>
</g>
</svg>
