<?xml version="1.0" standalone="no"?>
<!DOCTYPE svg PUBLIC "-//W3C//DTD SVG 20010904//EN"
 "http://www.w3.org/TR/2001/REC-SVG-20010904/DTD/svg10.dtd">
<svg version="1.0" xmlns="http://www.w3.org/2000/svg"
 width="2000.000000pt" height="2000.000000pt" viewBox="0 0 2000.000000 2000.000000"
 preserveAspectRatio="xMidYMid meet">

<g transform="translate(0.000000,2000.000000) scale(0.100000,-0.100000)"
fill="#000000" stroke="none">
<path d="M16275 12338 c-22 -5 -159 -39 -305 -74 -1077 -262 -1723 -570 -1886
-898 -32 -66 -38 -89 -42 -160 -9 -165 45 -262 271 -496 161 -165 235 -263
292 -382 222 -467 -150 -859 -1129 -1194 -439 -150 -924 -274 -1856 -474 -206
-44 -445 -99 -530 -121 -773 -200 -1448 -509 -1954 -892 -150 -113 -410 -370
-504 -497 -293 -397 -372 -802 -237 -1218 207 -640 924 -1265 2120 -1848 448
-218 691 -317 853 -348 212 -40 362 -31 643 40 944 236 1839 730 2539 1399
509 487 887 997 1194 1615 337 678 526 1369 586 2144 16 204 13 3416 -2 3415
-7 -1 -31 -6 -53 -11z"/>
</g>
</svg>
