<?xml version="1.0" encoding="UTF-8"?>
<svg xmlns="http://www.w3.org/2000/svg" xmlns:xlink="http://www.w3.org/1999/xlink" width="px" height="px" viewBox="0 0 400 400" version="1.1">
<g id="surface1">
<path style=" stroke:none;fill-rule:nonzero;fill:rgb(19.215687%,47.058824%,77.64706%);fill-opacity:1;" d="M 41.398438 25 L 358.601562 25 C 367.65625 25 375 32.34375 375 41.398438 L 375 358.601562 C 375 367.65625 367.65625 375 358.601562 375 L 41.398438 375 C 32.34375 375 25 367.65625 25 358.601562 L 25 41.398438 C 25 32.34375 32.34375 25 41.398438 25 Z M 41.398438 25 "/>
<path style=" stroke:none;fill-rule:evenodd;fill:rgb(100%,100%,100%);fill-opacity:1;" d="M 228.0625 296.988281 L 228.0625 335.335938 C 235.03125 338.777344 242.457031 341.195312 250.113281 342.523438 C 258.960938 344.160156 267.941406 344.960938 276.9375 344.925781 C 285.707031 344.964844 294.453125 344.082031 303.039062 342.289062 C 310.742188 340.730469 318.097656 337.765625 324.726562 333.539062 C 330.878906 329.566406 335.953125 324.128906 339.488281 317.710938 C 345.820312 304.429688 346.65625 289.183594 341.8125 275.289062 C 339.769531 270.089844 336.722656 265.347656 332.851562 261.324219 C 328.691406 257.046875 323.96875 253.359375 318.8125 250.363281 C 312.875 246.886719 306.707031 243.820312 300.351562 241.1875 C 295.351562 239.113281 290.851562 237.097656 286.851562 235.136719 C 283.296875 233.4375 279.898438 231.433594 276.6875 229.148438 C 274.171875 227.386719 271.988281 225.195312 270.238281 222.675781 C 268.722656 220.386719 267.933594 217.695312 267.976562 214.949219 C 267.941406 212.425781 268.644531 209.945312 270 207.8125 C 271.472656 205.582031 273.433594 203.71875 275.738281 202.363281 C 278.554688 200.703125 281.617188 199.511719 284.8125 198.824219 C 288.734375 197.953125 292.746094 197.535156 296.761719 197.574219 C 300.140625 197.585938 303.515625 197.828125 306.863281 198.300781 C 310.476562 198.789062 314.050781 199.527344 317.5625 200.511719 C 321.132812 201.503906 324.625 202.753906 328.011719 204.261719 C 331.296875 205.726562 334.441406 207.492188 337.398438 209.539062 L 337.398438 173.75 C 331.238281 171.417969 324.847656 169.742188 318.335938 168.75 C 310.472656 167.605469 302.535156 167.066406 294.585938 167.136719 C 285.902344 167.089844 277.242188 168.078125 268.789062 170.074219 C 261.148438 171.820312 253.882812 174.925781 247.335938 179.238281 C 241.257812 183.285156 236.238281 188.734375 232.699219 195.125 C 228.949219 202.222656 227.09375 210.164062 227.3125 218.1875 C 227.035156 228.796875 230.53125 239.160156 237.175781 247.4375 C 245.328125 256.613281 255.605469 263.648438 267.113281 267.925781 C 272.363281 270.089844 277.257812 272.210938 281.800781 274.289062 C 285.898438 276.109375 289.835938 278.273438 293.574219 280.75 C 296.589844 282.710938 299.238281 285.1875 301.398438 288.0625 C 303.300781 290.671875 304.308594 293.824219 304.273438 297.050781 C 304.292969 299.46875 303.671875 301.847656 302.476562 303.949219 C 301.144531 306.207031 299.277344 308.101562 297.039062 309.460938 C 294.234375 311.171875 291.167969 312.40625 287.960938 313.113281 C 283.785156 314.046875 279.515625 314.488281 275.238281 314.425781 C 266.839844 314.410156 258.511719 312.929688 250.625 310.050781 C 242.386719 307.078125 234.742188 302.652344 228.0625 296.988281 Z M 163.636719 201.511719 L 213.636719 201.511719 L 213.636719 169.925781 L 74.226562 169.925781 L 74.226562 201.511719 L 124 201.511719 L 124 342.1875 L 163.636719 342.1875 Z M 163.636719 201.511719 "/>
</g>
</svg>
